<svg width="1320" height="739" viewBox="0 0 1320 739" fill="none" xmlns="http://www.w3.org/2000/svg">
<path d="M1309.11 181.638C1309.74 176.139 1310.47 169.854 1311.25 163.064C1311.68 164.13 1312.66 166.543 1313.74 169.237C1314.08 158.238 1314.35 149.821 1314.43 147.099C1312.34 144.574 1310.71 143.648 1309.24 140.646C1305.32 132.649 1302.37 108.155 1298.66 118.732C1294.9 108.547 1292.09 100.944 1288.81 92.0494C1288.67 102.01 1288.58 107.481 1288.5 112.981C1288.22 113.317 1287.94 113.682 1287.66 114.019C1287.14 108.323 1286.63 102.655 1285.7 92.3301C1284.93 105.181 1284.42 113.626 1283.99 120.809C1281.74 118.873 1279.82 117.189 1277.63 115.281C1277.54 110.876 1277.44 104.928 1277.32 98.7272C1275.49 99.4006 1273.77 100.046 1272.05 100.691C1272.05 101.449 1272.06 102.235 1272.07 103.02C1273.21 104.76 1274.35 106.499 1276.44 109.67C1273.64 119.939 1271.54 121.735 1269.76 112.7C1267.95 103.553 1268.2 102.852 1266.04 110.764C1264.91 114.917 1263.57 117.442 1261.38 123.138C1262.08 113.065 1262.46 107.481 1263.09 98.4186C1261.51 101.926 1260.31 107.173 1259.25 106.499C1253.82 103.076 1248.42 97.3243 1242.98 93.9573C1234.92 88.935 1226.87 73.1665 1218.71 92.6387C1218 69.1823 1214.35 74.401 1211.94 72.942C1206.82 69.7995 1201.25 76.3651 1196.53 68.088C1191.09 58.5484 1185.81 59.5303 1180.4 57.6785C1179.08 57.2296 1177.77 55.0973 1176.46 54.6484C1174.01 53.8347 1171.56 54.1151 1169.12 53.077C1168.13 52.6561 1167.1 47.8302 1166.21 48.728C1158.7 56.4159 1151.33 50.5799 1143.93 44.2107C1142.29 42.8079 1140.52 42.5273 1138.9 44.2388C1135.81 47.4655 1132.8 56.1634 1129.77 56.0792C1123.44 55.9108 1117.12 49.5979 1110.79 49.3454C1102.78 49.0087 1094.75 54.003 1086.76 53.1612C1081.76 52.6562 1076.81 45.4172 1071.76 51.5057C1071.14 52.2633 1070.33 46.2308 1069.53 45.361C1068.43 44.1826 1067.21 43.6777 1066.14 45.1648C1065.02 46.7641 1064.06 53.1332 1062.97 53.6943C1059.7 55.4059 1056.4 51.7302 1053.1 51.5338C1048.59 51.2813 1044.03 46.3713 1039.36 47.1008C1031.57 48.3073 1023.78 45.9503 1015.99 45.8942C1013.18 45.8661 1010.36 46.3151 1007.55 46.3713V42.9481H812.81C811.885 33.4084 810.558 24.2055 809.471 14.8061C809.025 16.8824 808.589 18.9586 808.152 21.0068C809.239 25.4119 810.336 29.789 811.466 34.3624C811.218 38.0099 810.961 40.8157 810.567 42.92H768.41C767.117 40.956 765.696 40.8158 764.274 40.7316C763.084 40.6755 761.885 42.0502 760.481 42.92H756.713C756.088 39.2164 755.54 36.0459 755.017 33.1559C754.966 32.8754 754.589 34.2783 754.169 35.4567C754.135 37.7013 754.101 40.1142 754.058 42.92H714.214C714.06 41.8538 713.905 40.7316 713.717 40.0582C713.503 40.9 713.289 41.938 713.083 42.92H705.419C704.717 41.0401 704.049 39.1884 703.296 37.3646C702.807 40.2546 702.285 41.7416 701.754 42.92H698.723C697.584 40.8999 696.419 37.533 695.246 33.3243C694.595 37.561 694.116 40.4509 693.671 42.92H690.519C690.297 41.5732 690.117 40.7034 689.851 38.8797C689.44 41.5452 689.021 42.2466 688.61 42.92H687.24C686.092 40.7315 685.142 35.4006 684.842 36.1862C682.119 43.3971 680.697 37.1962 679.678 32.735C678.205 35.7091 676.767 39.6653 675.345 42.92H653.278C651.283 24.9069 650.187 31.9774 648.397 42.92H642.582C641.795 41.461 641.007 40.0021 640.142 38.4308C639.748 39.6093 639.174 41.3488 638.652 42.92H635.818C630.337 35.8494 625.285 38.7674 620.344 38.3466C620.147 38.3185 619.95 39.5532 619.599 40.7597C619.702 41.4331 619.821 42.2466 619.916 42.92H616.824C615.309 39.1883 613.853 35.625 612.286 31.753C612.474 36.074 612.628 39.5531 612.774 42.92H597.078C597.403 40.956 597.737 39.0201 598.062 37.4208C593.961 39.3848 589.859 41.1243 585.757 42.92H575.867C574.445 32.5386 572.467 39.1322 571.576 42.92H554.912C554.519 41.4891 554.185 40.2827 553.739 38.6553C553.696 40.2266 553.662 41.461 553.628 42.92H549.894C549.595 41.0963 549.226 38.8797 548.952 37.1963C548.738 39.0762 548.516 41.0121 548.293 42.92H363.191C362.266 33.3803 360.939 24.1774 359.851 14.778C359.415 16.8543 358.969 18.9307 358.533 20.9789C359.62 25.384 360.716 29.7609 361.847 34.3343C361.598 37.9818 361.341 40.7878 360.947 42.8921H318.791C317.498 40.9281 316.076 40.7877 314.655 40.7035C313.464 40.6474 312.266 42.0223 310.861 42.8921H307.093C306.468 39.1885 305.92 36.0178 305.398 33.1278C305.347 32.8473 304.97 34.2502 304.55 35.4286C304.516 37.6732 304.482 40.0863 304.43 42.8921H264.586C264.432 41.8259 264.277 40.7035 264.089 40.0302C263.875 40.8719 263.661 41.9101 263.455 42.8921H255.791C255.089 41.0122 254.421 39.1603 253.668 37.3365C253.18 40.2265 252.657 41.7137 252.126 42.8921H249.095C247.956 40.8719 246.791 37.5049 245.618 33.2962C244.967 37.5329 244.488 40.423 244.043 42.8921H240.891C240.669 41.5453 240.489 40.6755 240.223 38.8518C239.812 41.5173 239.393 42.2187 238.982 42.8921H237.612C236.464 40.7036 235.514 35.3725 235.214 36.1581C232.491 43.369 231.069 37.1683 230.05 32.7071C228.577 35.6812 227.139 39.6374 225.717 42.8921H203.65C201.655 24.8789 200.559 31.9495 198.769 42.8921H192.955C192.167 41.4331 191.379 39.974 190.514 38.4027C190.12 39.5812 189.546 41.3209 189.024 42.8921H186.19C180.709 35.8215 175.657 38.7395 170.716 38.3187C170.519 38.2906 170.322 39.5251 169.971 40.7316C170.476 44.1547 170.921 47.213 172.043 54.8167C168.421 45.8943 165.784 39.4128 162.667 31.753C163.052 40.6193 163.292 46.1748 163.626 53.7224C162.093 53.7224 160.115 55.6023 159.943 53.4138C158.522 35.5409 156.57 46.0625 155.319 48.8964C153.932 38.543 152.716 29.5364 151.055 17.1629H187.825C188.322 3.35842 186.772 3.52673 184.854 3.97566C176.933 5.79942 168.995 8.71756 161.074 7.96C155.97 7.48302 150.55 18.5098 145.72 0.103825C145.549 -0.569565 144.906 2.20812 144.478 3.38655C143.528 6.08011 142.577 8.7736 141.473 11.9161C144.675 17.8644 147.758 23.5602 151.654 30.7992C150.087 34.3625 149.419 36.9438 148.717 37.2805C142.158 40.4511 135.59 43.2848 129.022 46.0906C128.234 46.4273 126.872 47.3533 126.718 45.6698C125.203 28.4423 122.471 40.6193 121.692 44.0424C117.667 61.6908 113.043 50.7483 108.787 54.5922C108.273 55.0692 107.605 51.2253 107.031 49.2051C106.124 46.0346 105.242 42.6957 104.137 38.6834C103.906 47.2411 103.777 52.039 103.503 62.3643C101.739 51.6742 100.532 44.351 99.3502 37.1963C98.571 44.0424 97.766 51.0287 96.9697 57.9871C97.2694 58.7727 97.7746 60.0915 98.8707 62.9534C96.7042 64.3844 95.2913 65.3104 93.8783 66.2082C93.7927 61.5225 93.7157 57.7066 93.6471 53.8627C92.5425 54.8166 90.7271 53.9188 90.4359 57.0051C88.1667 81.5277 83.1315 72.8298 80.006 75.9723C73.2582 82.7343 66.0223 75.3831 58.9833 74.4572C58.2383 74.345 57.5019 78.9184 56.7141 80.6019C54.7188 84.8667 52.7407 89.917 50.6599 91.853C50.1718 92.3019 49.324 81.6119 48.5619 75.3549C43.8093 74.4851 39.4678 81.1349 36.719 112.7C36.0853 100.046 35.8284 94.8832 35.5458 89.2155C31.9407 89.2155 28.3014 89.2436 24.6706 89.2155C22.3242 89.1875 19.7981 86.6344 19.1559 104.788C19.0617 107.537 17.7344 110.624 16.9551 110.82C12.0227 111.999 8.10078 133.07 7.87814 161.745C12.3909 155.685 12.8534 164.355 10.2844 183.238C11.5346 184.023 12.5965 184.669 15.0113 186.156C9.59078 201.363 3.23688 204.842 3.99044 243.59C4.8382 241.009 5.6774 238.484 7.40716 233.209C7.11601 248.837 6.90194 260.228 6.66217 273.275C6.99613 276.727 8.28061 283.937 8.13504 290.222C7.98946 296.339 6.37957 301.474 5.489 306.608C7.76681 309.919 9.24825 312.079 10.7297 314.24C10.6012 316.849 10.4728 319.459 10.3358 322.068C7.83532 320.918 5.3263 319.795 2.82585 318.645C2.72309 320.16 2.61177 321.647 2.50901 323.162C4.58987 330.065 6.67073 336.967 8.81153 344.065C3.52803 354.615 3.45952 355.401 6.15693 375.238C1.83251 376.304 1.83252 376.304 2.91148 412.976C4.36723 419.176 5.37769 423.497 6.37958 427.762C5.39481 428.66 4.41004 429.558 3.53659 430.372C3.95619 442.044 4.06752 451.022 4.64125 459.075C5.01803 464.322 6.04562 468.306 6.82487 472.655C7.6555 477.312 8.52894 481.717 9.38526 486.263C9.66784 484.607 9.94186 482.952 10.2244 481.297C9.65928 475.938 9.08555 470.55 8.4005 464.125C24.5935 465.247 24.9189 465.64 27.3765 489.518C23.6944 491.622 20.3462 493.53 16.9723 495.438C17.349 499.226 17.6916 502.593 18.0255 505.96C16.8524 508.008 15.8762 509.719 14.9085 511.431C14.9513 512.609 14.9942 513.76 15.037 514.938C20.6459 519.876 26.2548 524.786 31.8637 529.724C31.9407 527.845 32.0178 525.993 32.0949 524.113C30.759 522.065 29.4232 519.989 28.0873 517.94C28.1472 515.499 28.2157 513.086 28.2842 510.645C38.5858 516.734 48.8873 522.822 57.9985 528.181C58.872 519.68 59.2659 513.03 59.5827 513.142C63.282 514.237 66.9728 516.397 70.6635 518.249C70.655 519.904 70.6464 521.56 70.6378 523.187C69.4818 524.337 68.3172 525.46 67.3753 526.386C67.6407 530.314 67.9062 534.242 68.1374 537.693H0.128443C0.0856268 540.751 0.042816 543.81 0 546.868C4.1874 550.908 8.37481 554.977 10.8924 557.39C10.2587 562.889 9.53084 569.174 8.75159 575.964C8.32343 574.898 7.33866 572.485 6.2597 569.791C5.91717 580.79 5.65171 589.207 5.56608 591.929C7.6555 594.454 9.29106 595.38 10.7639 598.382C14.6773 606.379 17.6316 630.873 21.3395 620.295C25.0987 630.48 27.9075 638.084 31.1872 646.979C31.3327 637.018 31.4184 631.547 31.4954 626.047C31.778 625.711 32.0606 625.346 32.3432 625.009C32.857 630.705 33.3708 636.372 34.3042 646.698C35.0748 633.847 35.5801 625.402 36.0083 618.219C38.2604 620.155 40.1785 621.839 42.3707 623.746C42.4563 628.152 42.5591 634.1 42.679 640.301C44.5115 639.627 46.2327 638.982 47.9539 638.337C47.9453 637.579 47.9368 636.793 47.9282 636.008C46.7893 634.268 45.6504 632.529 43.561 629.358C46.3611 619.089 48.4591 617.293 50.2403 626.328C52.0471 635.475 51.7988 636.176 53.9567 628.264C55.0871 624.111 56.4315 621.586 58.6151 615.89C57.9215 625.963 57.5361 631.547 56.911 640.609C58.4867 637.102 59.6855 631.855 60.7473 632.529C66.185 635.952 71.5798 641.704 77.0174 645.071C85.0839 650.093 93.1333 665.861 101.286 646.389C102.005 669.846 105.653 664.627 108.059 666.086C113.18 669.228 118.754 662.663 123.473 670.94C128.91 680.48 134.194 679.498 139.597 681.349C140.916 681.798 142.226 683.931 143.545 684.38C145.985 685.193 148.443 684.913 150.875 685.951C151.868 686.372 152.904 691.198 153.786 690.3C161.296 682.612 168.669 688.448 176.068 694.817C177.712 696.22 179.485 696.501 181.103 694.789C181.506 694.368 181.917 693.667 182.319 693.078H250.285C250.354 693.218 250.414 693.611 250.474 693.667C251.57 694.845 252.794 695.35 253.856 693.863C253.95 693.723 254.036 693.274 254.122 693.078H303.6C303.737 693.078 303.874 693.106 304.011 693.106C304.233 693.106 304.447 693.078 304.662 693.078H355.15C355.184 693.246 355.236 693.414 355.27 693.583C355.476 693.414 355.621 693.246 355.818 693.078H527.973C536.245 697.679 544.619 702.365 553.243 707.163C552.686 701.719 552.258 697.483 551.804 693.078H623.564C624.283 693.667 624.994 694.2 625.713 694.817C627.357 696.22 629.13 696.501 630.748 694.789C631.151 694.368 631.562 693.667 631.964 693.078H699.93C699.999 693.218 700.059 693.611 700.119 693.667C701.215 694.845 702.439 695.35 703.501 693.863C703.595 693.723 703.681 693.274 703.766 693.078H753.245C753.382 693.078 753.519 693.106 753.656 693.106C753.878 693.106 754.092 693.078 754.307 693.078H804.795C804.829 693.246 804.881 693.414 804.915 693.583C805.12 693.414 805.266 693.246 805.463 693.078H956.569C957.434 703.768 958.976 713.812 960.174 724.194C960.611 722.117 961.056 720.041 961.493 717.993C960.406 713.588 959.309 709.211 958.179 704.637C958.599 698.465 959.181 695.098 960.226 693.106H968.695C968.883 693.19 968.969 693.19 969.166 693.302C969.174 693.246 969.183 693.162 969.183 693.106H979.424C979.476 693.498 979.561 694.172 979.596 694.424C979.724 693.863 979.776 693.639 979.887 693.106H999.942C1001.53 697.875 1003.44 698.156 1005.35 698.24C1006.55 698.296 1007.75 696.893 1009.19 696.052C1009.86 692.713 1010.85 687.691 1011.19 685.951C1012.79 695.35 1013.68 700.709 1014.6 705.844C1014.65 706.124 1015.03 704.722 1015.45 703.543C1015.52 698.857 1015.6 693.583 1015.74 685.025C1018.66 686.288 1021.44 687.915 1024.22 688.588C1026.7 689.177 1029.19 688.925 1031.68 688.672C1033.84 688.448 1036 686.821 1038.16 687.354C1042.48 688.392 1047.38 697.96 1050.96 690.103C1054.66 681.995 1054.81 695.098 1055.91 698.97C1057.21 693.807 1058.53 684.772 1059.43 685.811C1061.73 688.42 1063.83 695.575 1066.33 701.663C1068.68 687.747 1071.55 695.491 1074.37 705.704C1077.39 686.175 1077.66 685.895 1079.77 700.148C1081.93 686.119 1084.26 704.188 1084.78 702.842C1087.5 695.631 1088.92 701.832 1089.94 706.293C1092.77 700.597 1095.47 690.973 1098.21 690.608C1102.26 690.075 1106.19 693.218 1110.26 686.203C1111.97 683.257 1115.46 688.139 1116.21 695.238C1118.35 715.243 1119.42 707.078 1121.33 695.519C1121.91 691.955 1123.61 693.583 1125.14 692.601C1126.68 695.435 1127.94 697.763 1129.48 700.597C1130.12 698.661 1131.42 694.761 1131.8 693.611C1138.08 704.722 1143.74 700.204 1149.28 700.681C1149.47 700.709 1149.67 699.475 1150.02 698.268C1149.52 694.845 1149.07 691.787 1147.95 684.183C1151.57 693.106 1154.21 699.587 1157.32 707.247C1156.94 698.38 1156.7 692.825 1156.37 685.277C1157.9 685.277 1159.88 683.398 1160.05 685.586C1161.47 703.459 1163.42 692.937 1164.67 690.103C1166.06 700.457 1167.28 709.463 1168.94 721.837H1132.17C1131.67 735.641 1133.22 735.473 1135.14 735.024C1143.06 733.2 1151 730.282 1158.92 731.04C1164.02 731.517 1169.44 720.49 1174.27 738.896C1174.44 739.57 1175.08 736.792 1175.51 735.613C1176.46 732.92 1177.41 730.226 1178.52 727.084C1175.32 721.135 1172.23 715.44 1168.34 708.201C1169.9 704.638 1170.57 702.056 1171.27 701.719C1177.83 698.549 1184.4 695.715 1190.97 692.909C1191.76 692.573 1193.12 691.647 1193.27 693.33C1194.79 710.558 1197.52 698.38 1198.3 694.957C1202.32 677.309 1206.95 688.252 1211.2 684.408C1211.72 683.931 1212.39 687.775 1212.96 689.795C1213.87 692.965 1214.75 696.304 1215.85 700.317C1216.09 691.759 1216.21 686.961 1216.49 676.636C1218.25 687.326 1219.46 694.649 1220.64 701.804C1221.42 694.957 1222.23 687.971 1223.02 681.013C1222.72 680.227 1222.22 678.908 1221.12 676.046C1223.29 674.615 1224.7 673.718 1226.11 672.792C1226.2 677.477 1226.28 681.293 1226.34 685.137C1227.45 684.183 1229.26 685.081 1229.56 681.995C1231.82 657.472 1236.86 666.17 1239.99 663.028C1246.73 656.266 1253.97 663.617 1261.01 664.543C1261.75 664.655 1262.49 660.082 1263.28 658.398C1265.27 654.133 1267.25 649.083 1269.33 647.147C1269.82 646.698 1270.67 657.388 1271.43 663.645C1276.18 664.515 1280.52 657.865 1283.27 626.3C1283.91 638.954 1284.16 644.117 1284.45 649.784C1288.05 649.784 1291.69 649.756 1295.32 649.784C1297.67 649.812 1300.19 652.366 1300.84 634.212C1300.93 631.463 1302.26 628.376 1303.04 628.18C1307.97 627.001 1311.89 605.93 1312.11 577.255C1307.6 583.315 1307.14 574.645 1309.71 555.762C1308.46 554.977 1307.4 554.331 1304.98 552.844C1310.4 537.637 1316.75 534.158 1316 495.41C1315.15 497.991 1314.31 500.516 1312.58 505.791C1312.88 490.163 1313.09 478.771 1313.33 465.724C1313 462.273 1311.71 455.062 1311.86 448.777C1312 442.661 1313.61 437.526 1314.5 432.392C1312.22 429.081 1310.74 426.92 1309.26 424.76C1309.39 422.151 1309.52 419.541 1309.66 416.932C1312.16 418.082 1314.67 419.204 1317.17 420.355C1317.27 418.84 1317.38 417.353 1317.48 415.838C1315.4 408.935 1313.32 402.033 1311.18 394.934C1316.46 384.385 1316.53 383.599 1313.83 363.762C1318.16 362.696 1318.16 362.696 1317.08 326.024C1315.62 319.823 1314.61 315.502 1313.61 311.238C1314.6 310.34 1315.58 309.442 1316.45 308.628C1316.04 296.956 1315.92 287.978 1315.35 279.925C1314.97 274.678 1313.95 270.694 1313.17 266.345C1312.34 261.687 1311.46 257.282 1310.61 252.737C1310.32 254.392 1310.05 256.048 1309.77 257.703C1310.33 263.062 1310.91 268.449 1311.59 274.875C1295.4 273.752 1295.07 273.359 1292.61 249.482C1296.3 247.378 1299.65 245.47 1303.02 243.562C1302.64 239.774 1302.3 236.407 1301.97 233.04C1303.14 230.992 1304.12 229.281 1305.08 227.569C1305.04 226.391 1305 225.24 1304.95 224.062C1299.35 219.124 1293.74 214.214 1288.13 209.275C1288.05 211.155 1287.97 213.007 1287.9 214.887C1289.23 216.935 1290.57 219.011 1291.9 221.06C1291.84 223.501 1291.78 225.914 1291.71 228.355C1281.41 222.266 1271.1 216.178 1261.99 210.819C1261.12 219.32 1260.73 225.97 1260.41 225.858C1256.71 224.763 1253.02 222.603 1249.33 220.751C1249.34 219.096 1249.35 217.44 1249.35 215.813C1250.51 214.662 1251.67 213.54 1252.62 212.614C1252.35 208.686 1252.09 204.758 1251.85 201.307H1319.86C1319.91 198.249 1319.95 195.19 1320 192.132C1315.82 188.148 1311.63 184.079 1309.11 181.638ZM547.514 693.106H550.408C549.252 697.146 548.67 697.006 547.514 693.106Z" fill="#F7F7F8"/>
</svg>
