<svg width="1320" height="330" viewBox="0 0 1320 330" fill="none" xmlns="http://www.w3.org/2000/svg">
<path d="M1309.11 81.1105C1309.74 78.6547 1310.47 75.8482 1311.25 72.8161C1311.68 73.2922 1312.66 74.3697 1313.74 75.5725C1314.08 70.6611 1314.35 66.9023 1314.43 65.687C1312.34 64.5593 1310.71 64.1459 1309.24 62.8053C1305.32 59.2344 1302.37 48.2964 1298.66 53.0199C1294.9 48.4718 1292.09 45.0764 1288.81 41.1046C1288.67 45.5525 1288.58 47.9957 1288.5 50.4515C1288.22 50.6018 1287.94 50.7647 1287.66 50.915C1287.14 48.3716 1286.63 45.8407 1285.7 41.2299C1284.93 46.9683 1284.42 50.7396 1283.99 53.9471C1281.74 53.0826 1279.82 52.3308 1277.63 51.4789C1277.54 49.5118 1277.44 46.8555 1277.32 44.0866C1275.49 44.3873 1273.77 44.6755 1272.05 44.9636C1272.05 45.3019 1272.06 45.6528 1272.07 46.0036C1273.21 46.7804 1274.35 47.5572 1276.44 48.973C1273.64 53.5587 1271.54 54.3605 1269.76 50.3261C1267.95 46.2416 1268.2 45.9284 1266.04 49.4617C1264.91 51.316 1263.57 52.4436 1261.38 54.987C1262.08 50.489 1262.46 47.9957 1263.09 43.9488C1261.51 45.5149 1260.31 47.8579 1259.25 47.5572C1253.82 46.0286 1248.42 43.4601 1242.98 41.9566C1234.92 39.7139 1226.87 32.6725 1218.71 41.3678C1218 30.8933 1214.35 33.2237 1211.94 32.5722C1206.82 31.1689 1201.25 34.1008 1196.53 30.4047C1191.09 26.1447 1185.81 26.5832 1180.4 25.7563C1179.08 25.5558 1177.77 24.6037 1176.46 24.4032C1174.01 24.0399 1171.56 24.1651 1169.12 23.7015C1168.13 23.5135 1167.1 21.3585 1166.21 21.7595C1158.7 25.1925 1151.33 22.5864 1143.93 19.7423C1142.29 19.1158 1140.52 18.9905 1138.9 19.7548C1135.81 21.1957 1132.8 25.0797 1129.77 25.0421C1123.44 24.967 1117.12 22.1479 1110.79 22.0352C1102.78 21.8848 1094.75 24.115 1086.76 23.7391C1081.76 23.5136 1076.81 20.281 1071.76 22.9999C1071.14 23.3381 1070.33 20.6444 1069.53 20.2559C1068.43 19.7297 1067.21 19.5043 1066.14 20.1683C1065.02 20.8825 1064.06 23.7266 1062.97 23.9772C1059.7 24.7415 1056.4 23.1001 1053.1 23.0124C1048.59 22.8996 1044.03 20.7071 1039.36 21.0328C1031.57 21.5716 1023.78 20.5191 1015.99 20.494C1013.18 20.4815 1010.36 20.682 1007.55 20.7071V19.1785H812.81C811.885 14.9185 810.558 10.809 809.471 6.61167C809.025 7.53883 808.589 8.46595 808.152 9.38058C809.239 11.3477 810.336 13.3022 811.466 15.3445C811.218 16.9733 810.961 18.2262 810.567 19.1659H768.41C767.117 18.2889 765.696 18.2263 764.274 18.1887C763.084 18.1636 761.885 18.7775 760.481 19.1659H756.713C756.088 17.5121 755.54 16.0963 755.017 14.8058C754.966 14.6805 754.589 15.3069 754.169 15.8332C754.135 16.8355 754.101 17.913 754.058 19.1659H714.214C714.06 18.6898 713.905 18.1887 713.717 17.888C713.503 18.2639 713.289 18.7274 713.083 19.1659H705.419C704.717 18.3265 704.049 17.4995 703.296 16.6851C702.807 17.9757 702.285 18.6397 701.754 19.1659H698.723C697.584 18.2638 696.419 16.7603 695.246 14.8809C694.595 16.7728 694.116 18.0633 693.671 19.1659H690.519C690.297 18.5645 690.117 18.1761 689.851 17.3617C689.44 18.552 689.021 18.8652 688.61 19.1659H687.24C686.092 18.1886 685.142 15.8081 684.842 16.1589C682.119 19.379 680.697 16.6099 679.678 14.6178C678.205 15.9459 676.767 17.7125 675.345 19.1659H653.278C651.283 11.1221 650.187 14.2795 648.397 19.1659H642.582C641.795 18.5144 641.007 17.8629 640.142 17.1613C639.748 17.6875 639.174 18.4643 638.652 19.1659H635.818C630.337 16.0085 625.285 17.3116 620.344 17.1236C620.147 17.1111 619.95 17.6625 619.599 18.2012C619.702 18.5019 619.821 18.8652 619.916 19.1659H616.824C615.309 17.4995 613.853 15.9083 612.286 14.1793C612.474 16.1088 612.628 17.6624 612.774 19.1659H597.078C597.403 18.2889 597.737 17.4244 598.062 16.7102C593.961 17.5873 589.859 18.364 585.757 19.1659H575.867C574.445 14.5301 572.467 17.4745 571.576 19.1659H554.912C554.519 18.5269 554.185 17.9882 553.739 17.2615C553.696 17.9632 553.662 18.5144 553.628 19.1659H549.894C549.595 18.3515 549.226 17.3617 548.952 16.61C548.738 17.4494 548.516 18.3139 548.293 19.1659H363.191C362.266 14.906 360.939 10.7964 359.851 6.59913C359.415 7.52629 358.969 8.45348 358.533 9.36812C359.62 11.3352 360.716 13.2897 361.847 15.332C361.598 16.9608 361.341 18.2138 360.947 19.1534H318.791C317.498 18.2764 316.076 18.2137 314.655 18.1761C313.464 18.1511 312.266 18.765 310.861 19.1534H307.093C306.468 17.4996 305.92 16.0837 305.398 14.7932C305.347 14.6679 304.97 15.2944 304.55 15.8206C304.516 16.823 304.482 17.9005 304.43 19.1534H264.586C264.432 18.6773 264.277 18.1761 264.089 17.8754C263.875 18.2513 263.661 18.7149 263.455 19.1534H255.791C255.089 18.314 254.421 17.487 253.668 16.6726C253.18 17.9631 252.657 18.6272 252.126 19.1534H249.095C247.956 18.2513 246.791 16.7478 245.618 14.8684C244.967 16.7603 244.488 18.0509 244.043 19.1534H240.891C240.669 18.552 240.489 18.1636 240.223 17.3492C239.812 18.5395 239.393 18.8527 238.982 19.1534H237.612C236.464 18.1762 235.514 15.7956 235.214 16.1464C232.491 19.3664 231.069 16.5975 230.05 14.6053C228.577 15.9334 227.139 17.7001 225.717 19.1534H203.65C201.655 11.1097 200.559 14.267 198.769 19.1534H192.955C192.167 18.5019 191.379 17.8504 190.514 17.1487C190.12 17.6749 189.546 18.4518 189.024 19.1534H186.19C180.709 15.9961 175.657 17.2991 170.716 17.1112C170.519 17.0986 170.322 17.6499 169.971 18.1887C170.476 19.7172 170.921 21.0829 172.043 24.4784C168.421 20.4941 165.784 17.5998 162.667 14.1793C163.052 18.1385 163.292 20.6193 163.626 23.9897C162.093 23.9897 160.115 24.8292 159.943 23.8519C158.522 15.8708 156.57 20.5692 155.319 21.8346C153.932 17.2114 152.716 13.1895 151.055 7.66408H187.825C188.322 1.4997 186.772 1.57486 184.854 1.77533C176.933 2.58973 168.995 3.89282 161.074 3.55453C155.97 3.34154 150.55 8.26554 145.72 0.0463628C145.549 -0.254339 144.906 0.986034 144.478 1.51226C143.528 2.71507 142.577 3.91785 141.473 5.32112C144.675 7.97732 147.758 10.5208 151.654 13.7533C150.087 15.3446 149.419 16.4972 148.717 16.6476C142.158 18.0634 135.59 19.3288 129.022 20.5817C128.234 20.7321 126.872 21.1456 126.718 20.3938C125.203 12.7009 122.471 18.1385 121.692 19.6671C117.667 27.548 113.043 22.6616 108.787 24.3781C108.273 24.5911 107.605 22.8746 107.031 21.9725C106.124 20.5567 105.242 19.0657 104.137 17.2741C103.906 21.0955 103.777 23.238 103.503 27.8487C101.739 23.0751 100.532 19.8049 99.3502 16.61C98.571 19.6671 97.766 22.7869 96.9697 25.8941C97.2694 26.2449 97.7746 26.8338 98.8707 28.1118C96.7042 28.7508 95.2913 29.1643 93.8783 29.5652C93.7927 27.4729 93.7157 25.7688 93.6471 24.0523C92.5425 24.4783 90.7271 24.0774 90.4359 25.4556C88.1667 36.4062 83.1315 32.5221 80.006 33.9254C73.2582 36.9449 66.0223 33.6623 58.9833 33.2488C58.2383 33.1987 57.5019 35.241 56.7141 35.9927C54.7188 37.8972 52.7407 40.1524 50.6599 41.0169C50.1718 41.2174 49.324 36.4437 48.5619 33.6497C43.8093 33.2613 39.4678 36.2307 36.719 50.3261C36.0853 44.6754 35.8284 42.3701 35.5458 39.8391C31.9407 39.8391 28.3014 39.8517 24.6706 39.8391C22.3242 39.8266 19.7981 38.6865 19.1559 46.7929C19.0617 48.0208 17.7344 49.399 16.9551 49.4867C12.0227 50.0129 8.10078 59.4224 7.87814 72.2273C12.3909 69.521 12.8534 73.3924 10.2844 81.8246C11.5346 82.1754 12.5965 82.4637 15.0113 83.1277C9.59078 89.9186 3.23688 91.4721 3.99044 108.775C4.8382 107.622 5.6774 106.495 7.40716 104.139C7.11601 111.118 6.90194 116.205 6.66217 122.031C6.99613 123.572 8.28061 126.792 8.13504 129.599C7.98946 132.33 6.37957 134.623 5.489 136.916C7.76681 138.394 9.24825 139.359 10.7297 140.324C10.6012 141.489 10.4728 142.654 10.3358 143.819C7.83532 143.306 5.3263 142.804 2.82585 142.291C2.72309 142.967 2.61177 143.631 2.50901 144.308C4.58987 147.39 6.67073 150.472 8.81153 153.642C3.52803 158.353 3.45952 158.704 6.15693 167.562C1.83251 168.038 1.83252 168.038 2.91148 184.414C4.36723 187.183 5.37769 189.112 6.37958 191.017C5.39481 191.418 4.41004 191.819 3.53659 192.182C3.95619 197.394 4.06752 201.404 4.64125 205C5.01803 207.342 6.04562 209.122 6.82487 211.064C7.6555 213.144 8.52894 215.111 9.38526 217.14C9.66784 216.401 9.94186 215.662 10.2244 214.923C9.65928 212.53 9.08555 210.124 8.4005 207.255C24.5935 207.756 24.9189 207.931 27.3765 218.594C23.6944 219.533 20.3462 220.385 16.9723 221.237C17.349 222.929 17.6916 224.432 18.0255 225.936C16.8524 226.851 15.8762 227.615 14.9085 228.379C14.9513 228.905 14.9942 229.419 15.037 229.945C20.6459 232.15 26.2548 234.343 31.8637 236.548C31.9407 235.709 32.0178 234.882 32.0949 234.042C30.759 233.128 29.4232 232.201 28.0873 231.286C28.1472 230.196 28.2157 229.118 28.2842 228.028C38.5858 230.747 48.8873 233.466 57.9985 235.859C58.872 232.063 59.2659 229.093 59.5827 229.143C63.282 229.632 66.9728 230.597 70.6635 231.424C70.655 232.163 70.6464 232.902 70.6378 233.629C69.4818 234.143 68.3172 234.644 67.3753 235.057C67.6407 236.811 67.9062 238.565 68.1374 240.106H0.128443C0.0856268 241.472 0.042816 242.838 0 244.204C4.1874 246.008 8.37481 247.825 10.8924 248.902C10.2587 251.358 9.53084 254.164 8.75159 257.196C8.32343 256.72 7.33866 255.643 6.2597 254.44C5.91717 259.351 5.65171 263.11 5.56608 264.326C7.6555 265.453 9.29106 265.867 10.7639 267.207C14.6773 270.778 17.6316 281.716 21.3395 276.993C25.0987 281.541 27.9075 284.936 31.1872 288.908C31.3327 284.46 31.4184 282.017 31.4954 279.561C31.778 279.411 32.0606 279.248 32.3432 279.097C32.857 281.641 33.3708 284.172 34.3042 288.783C35.0748 283.044 35.5801 279.273 36.0083 276.065C38.2604 276.93 40.1785 277.682 42.3707 278.534C42.4563 280.501 42.5591 283.157 42.679 285.926C44.5115 285.625 46.2327 285.337 47.9539 285.049C47.9453 284.711 47.9368 284.36 47.9282 284.009C46.7893 283.232 45.6504 282.455 43.561 281.039C46.3611 276.454 48.4591 275.652 50.2403 279.686C52.0471 283.771 51.7988 284.084 53.9567 280.551C55.0871 278.696 56.4315 277.569 58.6151 275.025C57.9215 279.523 57.5361 282.017 56.911 286.064C58.4867 284.498 59.6855 282.155 60.7473 282.455C66.185 283.984 71.5798 286.552 77.0174 288.056C85.0839 290.299 93.1333 297.34 101.286 288.645C102.005 299.119 105.653 296.789 108.059 297.44C113.18 298.844 118.754 295.912 123.473 299.608C128.91 303.868 134.194 303.429 139.597 304.256C140.916 304.457 142.226 305.409 143.545 305.609C145.985 305.973 148.443 305.847 150.875 306.311C151.868 306.499 152.904 308.654 153.786 308.253C161.296 304.82 168.669 307.426 176.068 310.27C177.712 310.897 179.485 311.022 181.103 310.258C181.506 310.07 181.917 309.757 182.319 309.493H250.285C250.354 309.556 250.414 309.731 250.474 309.757C251.57 310.283 252.794 310.508 253.856 309.844C253.95 309.782 254.036 309.581 254.122 309.493H303.6C303.737 309.493 303.874 309.506 304.011 309.506C304.233 309.506 304.447 309.493 304.662 309.493H355.15C355.184 309.569 355.236 309.644 355.27 309.719C355.476 309.644 355.621 309.569 355.818 309.493H527.973C536.245 311.548 544.619 313.641 553.243 315.783C552.686 313.352 552.258 311.46 551.804 309.493H623.564C624.283 309.757 624.994 309.995 625.713 310.27C627.357 310.897 629.13 311.022 630.748 310.258C631.151 310.07 631.562 309.757 631.964 309.493H699.93C699.999 309.556 700.059 309.731 700.119 309.757C701.215 310.283 702.439 310.508 703.501 309.844C703.595 309.782 703.681 309.581 703.766 309.493H753.245C753.382 309.493 753.519 309.506 753.656 309.506C753.878 309.506 754.092 309.493 754.307 309.493H804.795C804.829 309.569 804.881 309.644 804.915 309.719C805.12 309.644 805.266 309.569 805.463 309.493H956.569C957.434 314.267 958.976 318.752 960.174 323.388C960.611 322.461 961.056 321.534 961.493 320.619C960.406 318.652 959.309 316.698 958.179 314.655C958.599 311.899 959.181 310.396 960.226 309.506H968.695C968.883 309.544 968.969 309.544 969.166 309.594C969.174 309.569 969.183 309.531 969.183 309.506H979.424C979.476 309.681 979.561 309.982 979.596 310.095C979.724 309.844 979.776 309.744 979.887 309.506H999.942C1001.53 311.636 1003.44 311.761 1005.35 311.799C1006.55 311.824 1007.75 311.197 1009.19 310.821C1009.86 309.331 1010.85 307.088 1011.19 306.311C1012.79 310.508 1013.68 312.901 1014.6 315.194C1014.65 315.319 1015.03 314.693 1015.45 314.167C1015.52 312.074 1015.6 309.719 1015.74 305.897C1018.66 306.461 1021.44 307.188 1024.22 307.489C1026.7 307.752 1029.19 307.639 1031.68 307.526C1033.84 307.426 1036 306.699 1038.16 306.937C1042.48 307.401 1047.38 311.673 1050.96 308.165C1054.66 304.544 1054.81 310.395 1055.91 312.124C1057.21 309.819 1058.53 305.785 1059.43 306.248C1061.73 307.413 1063.83 310.608 1066.33 313.327C1068.68 307.113 1071.55 310.571 1074.37 315.132C1077.39 306.411 1077.66 306.286 1079.77 312.651C1081.93 306.386 1084.26 314.455 1084.78 313.854C1087.5 310.634 1088.92 313.403 1089.94 315.395C1092.77 312.851 1095.47 308.554 1098.21 308.391C1102.26 308.153 1106.19 309.556 1110.26 306.424C1111.97 305.108 1115.46 307.288 1116.21 310.458C1118.35 319.392 1119.42 315.745 1121.33 310.583C1121.91 308.992 1123.61 309.719 1125.14 309.28C1126.68 310.546 1127.94 311.586 1129.48 312.851C1130.12 311.987 1131.42 310.245 1131.8 309.731C1138.08 314.693 1143.74 312.676 1149.28 312.889C1149.47 312.901 1149.67 312.35 1150.02 311.811C1149.52 310.283 1149.07 308.917 1147.95 305.522C1151.57 309.506 1154.21 312.4 1157.32 315.821C1156.94 311.861 1156.7 309.381 1156.37 306.01C1157.9 306.01 1159.88 305.171 1160.05 306.148C1161.47 314.129 1163.42 309.431 1164.67 308.165C1166.06 312.789 1167.28 316.81 1168.94 322.336H1132.17C1131.67 328.5 1133.22 328.425 1135.14 328.225C1143.06 327.41 1151 326.107 1158.92 326.445C1164.02 326.658 1169.44 321.734 1174.27 329.954C1174.44 330.254 1175.08 329.014 1175.51 328.488C1176.46 327.285 1177.41 326.082 1178.52 324.679C1175.32 322.023 1172.23 319.479 1168.34 316.247C1169.9 314.655 1170.57 313.503 1171.27 313.352C1177.83 311.937 1184.4 310.671 1190.97 309.418C1191.76 309.268 1193.12 308.854 1193.27 309.606C1194.79 317.299 1197.52 311.861 1198.3 310.333C1202.32 302.452 1206.95 307.338 1211.2 305.622C1211.72 305.409 1212.39 307.125 1212.96 308.027C1213.87 309.443 1214.75 310.934 1215.85 312.726C1216.09 308.905 1216.21 306.762 1216.49 302.151C1218.25 306.925 1219.46 310.195 1220.64 313.39C1221.42 310.333 1222.23 307.213 1223.02 304.106C1222.72 303.755 1222.22 303.166 1221.12 301.888C1223.29 301.249 1224.7 300.848 1226.11 300.435C1226.2 302.527 1226.28 304.231 1226.34 305.948C1227.45 305.522 1229.26 305.923 1229.56 304.544C1231.82 293.594 1236.86 297.478 1239.99 296.075C1246.73 293.055 1253.97 296.338 1261.01 296.751C1261.75 296.801 1262.49 294.759 1263.28 294.007C1265.27 292.103 1267.25 289.848 1269.33 288.983C1269.82 288.783 1270.67 293.556 1271.43 296.35C1276.18 296.739 1280.52 293.769 1283.27 279.674C1283.91 285.324 1284.16 287.63 1284.45 290.161C1288.05 290.161 1291.69 290.148 1295.32 290.161C1297.67 290.173 1300.19 291.313 1300.84 283.207C1300.93 281.979 1302.26 280.601 1303.04 280.513C1307.97 279.987 1311.89 270.578 1312.11 257.773C1307.6 260.479 1307.14 256.607 1309.71 248.175C1308.46 247.824 1307.4 247.536 1304.98 246.872C1310.4 240.081 1316.75 238.528 1316 221.225C1315.15 222.378 1314.31 223.505 1312.58 225.861C1312.88 218.882 1313.09 213.795 1313.33 207.969C1313 206.428 1311.71 203.208 1311.86 200.401C1312 197.67 1313.61 195.377 1314.5 193.084C1312.22 191.606 1310.74 190.641 1309.26 189.676C1309.39 188.511 1309.52 187.346 1309.66 186.181C1312.16 186.694 1314.67 187.195 1317.17 187.709C1317.27 187.033 1317.38 186.369 1317.48 185.692C1315.4 182.61 1313.32 179.528 1311.18 176.358C1316.46 171.647 1316.53 171.296 1313.83 162.438C1318.16 161.962 1318.16 161.962 1317.08 145.586C1315.62 142.817 1314.61 140.887 1313.61 138.983C1314.6 138.582 1315.58 138.181 1316.45 137.818C1316.04 132.606 1315.92 128.596 1315.35 125C1314.97 122.657 1313.95 120.878 1313.17 118.936C1312.34 116.856 1311.46 114.889 1310.61 112.86C1310.32 113.599 1310.05 114.338 1309.77 115.077C1310.33 117.47 1310.91 119.876 1311.59 122.745C1295.4 122.244 1295.07 122.069 1292.61 111.406C1296.3 110.466 1299.65 109.614 1303.02 108.762C1302.64 107.071 1302.3 105.568 1301.97 104.064C1303.14 103.149 1304.12 102.385 1305.08 101.621C1305.04 101.095 1305 100.581 1304.95 100.055C1299.35 97.8495 1293.74 95.6569 1288.13 93.4518C1288.05 94.2913 1287.97 95.1182 1287.9 95.9576C1289.23 96.8723 1290.57 97.7995 1291.9 98.7141C1291.84 99.8041 1291.78 100.882 1291.71 101.972C1281.41 99.2528 1271.1 96.534 1261.99 94.1409C1261.12 97.9372 1260.73 100.907 1260.41 100.857C1256.71 100.368 1253.02 99.4031 1249.33 98.5762C1249.34 97.837 1249.35 97.0977 1249.35 96.371C1250.51 95.8574 1251.67 95.3562 1252.62 94.9428C1252.35 93.1887 1252.09 91.4346 1251.85 89.8935H1319.86C1319.91 88.5278 1319.95 87.1621 1320 85.7964C1315.82 84.0173 1311.63 82.2005 1309.11 81.1105ZM547.514 309.506H550.408C549.252 311.31 548.67 311.247 547.514 309.506Z" fill="#F7F7F8"/>
</svg>
