<svg width="47" height="47" viewBox="0 0 47 47" fill="none" xmlns="http://www.w3.org/2000/svg">
<g clip-path="url(#clip0_99_678)">
<circle cx="23.5" cy="23.5" r="23.5" fill="white"/>
<path d="M21.7544 0.0552368C21.58 0.073597 21.0384 0.137856 20.5611 0.192932C13.3 1.0191 6.5896 5.57223 2.89937 12.1724C1.55913 14.5775 0.586084 17.5701 0.172998 20.5627C0.00776367 21.7101 0.00776367 25.2902 0.172998 26.4377C1.13687 33.4326 4.86382 39.3718 10.6929 43.1998C16.2833 46.8716 23.3333 47.9457 29.8785 46.1097C38.4064 43.723 44.9882 36.5353 46.5763 27.8697C48.0083 20.1129 45.6308 12.4295 40.1046 6.8941C36.4419 3.24059 32.0357 1.02828 26.8033 0.229652C25.8853 0.0919571 22.4705 -0.0273819 21.7544 0.0552368ZM25.3804 2.84586C29.9519 3.26813 34.349 5.26012 37.7546 8.44547C40.5361 11.0525 42.73 14.8254 43.6296 18.5523C44.0794 20.3974 44.1896 21.3888 44.1896 23.5002C44.1896 25.6115 44.0794 26.6029 43.6296 28.448C42.9136 31.4314 41.3714 34.4423 39.306 36.9025C36.5888 40.1521 32.5865 42.6306 28.4464 43.6312C26.6013 44.081 25.6099 44.1912 23.4986 44.1912C21.3781 44.1912 20.3958 44.081 18.5416 43.6312C14.9064 42.75 11.106 40.5652 8.56323 37.8847C4.37729 33.4785 2.30269 27.5576 2.84429 21.6183C3.33999 16.2666 6.01128 11.1259 10.0962 7.68356C14.3556 4.10348 19.9093 2.34098 25.3804 2.84586Z" fill="#E54530"/>
<path d="M23.0957 8.90465C22.9489 8.95055 22.7285 9.07907 22.6 9.1984C22.1778 9.59313 22.1227 9.8777 22.1227 11.6586V13.3109H21.6545C20.1123 13.3109 18.3223 14.3115 17.3125 15.7252C16.5139 16.8543 16.1926 17.9834 16.266 19.4429C16.3487 20.8933 16.8994 22.1142 17.9551 23.1699C18.6344 23.84 19.2953 24.2531 20.2133 24.5836C20.8559 24.8131 20.9936 24.8222 23.316 24.8681C25.7487 24.9232 25.7487 24.9232 26.2719 25.1802C26.9328 25.5015 27.5571 26.19 27.8141 26.8785C28.3557 28.2922 27.6672 29.9904 26.2903 30.6697C25.8405 30.89 25.8221 30.89 22.242 30.9359C18.7721 30.9818 18.6344 30.991 18.3865 31.1746C17.5053 31.8263 17.4961 32.9738 18.3774 33.5062C18.6528 33.6714 18.8455 33.6898 20.3969 33.6898H22.1135L22.141 35.4707C22.1686 37.4259 22.1869 37.4994 22.7928 37.9492C23.1324 38.197 23.8668 38.197 24.2065 37.9492C24.8123 37.4994 24.8307 37.4259 24.8582 35.4707L24.8858 33.6898H25.3539C25.6018 33.6898 26.0699 33.6255 26.3821 33.5429C28.4658 33.0105 30.1274 31.3123 30.6231 29.2101C30.8342 28.3105 30.7608 26.8693 30.4578 26.0523C29.7969 24.2898 28.4291 22.9404 26.7125 22.3804C26.1893 22.206 25.8221 22.1785 23.6832 22.1326C21.2506 22.0775 21.2506 22.0775 20.7274 21.8205C20.0664 21.4992 19.4422 20.8107 19.1852 20.1222C19.0199 19.7 18.9924 19.4613 19.0199 18.9105C19.0934 17.7539 19.6901 16.8359 20.6998 16.331C21.1588 16.1107 21.168 16.1107 24.7573 16.0648C28.2272 16.0189 28.3649 16.0097 28.6127 15.8261C29.494 15.1744 29.5031 14.0269 28.6219 13.4945C28.3465 13.3293 28.1537 13.3109 26.6024 13.3109H24.8858L24.8582 11.53C24.8307 9.89606 24.8123 9.72164 24.6379 9.49215C24.2432 8.95973 23.6557 8.73024 23.0957 8.90465Z" fill="#E54530"/>
</g>
<defs>
<clipPath id="clip0_99_678">
<rect width="47" height="47" fill="white"/>
</clipPath>
</defs>
</svg>
