<svg width="47" height="47" viewBox="0 0 47 47" fill="none" xmlns="http://www.w3.org/2000/svg">
<path d="M4.19622 11.3307L21.4016 2.09857L39.8659 11.3307L41.1248 26.0182L44.0623 38.6075L36.5087 45.7414L27.6962 43.2236L21.4016 44.9021L3.35693 34.4111L4.19622 11.3307Z" fill="white"/>
<path d="M11.7408 5.86583L1.60645 11.7133L1.58809 23.4633L1.56055 35.2041L11.5756 40.9873C17.0834 44.1727 21.6641 46.8072 21.7559 46.8531C21.8752 46.9082 22.5453 46.5594 24.5557 45.4027C26.0061 44.5674 27.2453 43.8789 27.3004 43.8789C27.3647 43.8789 27.5115 43.9891 27.64 44.1176C28.0164 44.5399 29.2098 45.3844 29.9809 45.7791C31.8811 46.7705 34.2127 47.1928 36.1955 46.9082C40.7578 46.2473 44.2369 43.0068 45.2191 38.5088C45.4303 37.5082 45.4303 35.3877 45.2191 34.3779C44.7969 32.4227 43.8881 30.6326 42.6213 29.274L42.2266 28.8518L42.2082 20.2779L42.1807 11.7133L32.3584 6.03107C26.9607 2.90997 22.3893 0.284583 22.2057 0.183607L21.8752 0.00919247L11.7408 5.86583ZM30.0176 7.86701C34.3871 10.3914 37.958 12.4936 37.958 12.5303C37.958 12.567 36.4801 13.4574 34.6625 14.5039L31.3762 16.4133L29.2832 15.2016C28.1357 14.5406 24.5098 12.4477 21.2234 10.5567C17.9371 8.66564 15.2475 7.09591 15.2383 7.06837C15.2383 6.9674 21.8109 3.22208 21.9395 3.24962C22.0129 3.26798 25.648 5.34259 30.0176 7.86701ZM20.8563 13.5125C25.0881 15.9543 28.5397 17.9647 28.5488 17.9922C28.5488 18.0197 27.0525 18.901 25.235 19.9567C22.3893 21.5906 21.8844 21.8477 21.7191 21.7742C21.0215 21.4346 5.85664 12.5945 5.85664 12.5303C5.85664 12.4844 7.33457 11.594 9.14297 10.5475L12.4385 8.64728L12.8057 8.86759C13.0076 8.98693 16.6336 11.0799 20.8563 13.5125ZM12.4844 19.6262L20.4248 24.216L20.4523 33.5426C20.4615 38.674 20.4432 42.8692 20.4064 42.8692C20.3605 42.86 16.7438 40.7854 12.3467 38.2426L4.36035 33.6344L4.33281 24.2895C4.31445 16.8172 4.33281 14.9537 4.42461 14.9904C4.48887 15.018 8.11484 17.1018 12.4844 19.6262ZM39.4727 20.9297C39.4727 24.2068 39.4543 26.8965 39.4359 26.8965C39.4176 26.8965 39.1973 26.8139 38.9494 26.7037C35.6264 25.2625 31.5598 25.7399 28.6406 27.9154C25.85 29.9901 24.3262 33.001 24.3262 36.4434C24.3262 38.1141 24.5924 39.3258 25.2717 40.7854C25.4736 41.226 25.6205 41.5932 25.6021 41.6115C25.4736 41.7125 23.4266 42.8692 23.3715 42.8692C23.3439 42.8692 23.3256 38.674 23.3348 33.5426L23.3623 24.216L31.3486 19.5986C35.7457 17.0559 39.3625 14.9721 39.4084 14.9721C39.4451 14.9629 39.4727 17.6434 39.4727 20.9297ZM36.8564 28.8701C37.7285 29.0996 39.1789 29.8707 39.8582 30.449C41.1066 31.5231 42.0154 32.9551 42.4285 34.5156C42.7039 35.5897 42.7039 37.2695 42.4193 38.3252C41.6115 41.3361 39.2523 43.5393 36.2139 44.1084C32.9367 44.7326 29.3842 42.9518 27.9063 39.95C27.3647 38.8485 27.1627 38.0682 27.1076 36.8106C26.9975 34.4606 27.7135 32.5787 29.3199 30.9723C30.5041 29.7973 31.6883 29.1455 33.2764 28.7875C34.0842 28.6039 36.0486 28.6498 36.8564 28.8701Z" fill="#E54530"/>
<path d="M35.8283 34.7176L33.5977 36.9483L32.5879 35.9385L31.5781 34.9287L30.6143 35.9385L29.6504 36.9483L31.6516 38.8944L33.6436 40.8405L36.8381 37.6551C38.5914 35.9018 40.0234 34.4239 40.0234 34.378C40.0234 34.2586 38.2609 32.4961 38.1416 32.4961C38.0865 32.4961 37.0492 33.4967 35.8283 34.7176Z" fill="#E54530"/>
</svg>
