<svg width="47" height="47" viewBox="0 0 47 47" fill="none" xmlns="http://www.w3.org/2000/svg">
<g clip-path="url(#clip0_99_663)">
<path d="M5.4555 10.0714L40.2859 3.77679L45.3216 30.2143L39.8662 31.8929L38.1876 42.8036L2.09835 42.3839L1.67871 20.9822L5.4555 10.0714Z" fill="white"/>
<path d="M37.6373 2.2673C37.5088 2.29484 30.5139 3.52492 22.0777 5.01203C13.6508 6.49914 6.58242 7.75676 6.38047 7.81183C4.7832 8.24328 3.33281 9.72121 2.89219 11.3827C2.71777 12.0437 2.71777 13.2462 2.90137 14.2193C3.03906 14.9628 3.03906 15.0087 2.88301 15.1005C1.37754 15.9726 0.487109 17.0833 0.138281 18.5612C-0.0636719 19.4425 -0.0636719 39.9591 0.138281 40.8403C0.588086 42.7497 2.13027 44.2644 4.03047 44.6683C4.95762 44.8611 35.5535 44.8519 36.4898 44.6591C38.2064 44.3011 39.5742 43.0802 40.2351 41.3452C40.4279 40.822 40.4371 40.6659 40.483 36.8564L40.5289 32.9091L41.9058 32.6612C42.6678 32.5236 43.5031 32.3308 43.7693 32.2206C45.7613 31.4679 47.1199 29.3566 46.973 27.2636C46.8996 26.2905 43.3654 6.31554 43.1359 5.62707C42.4107 3.40559 39.8863 1.87258 37.6373 2.2673ZM39.4732 5.28742C40.0148 5.58117 40.4187 6.07687 40.5656 6.63683C40.6207 6.84797 41.4744 11.603 42.4658 17.2118C43.7418 24.473 44.2467 27.5114 44.2099 27.796C44.1182 28.5212 43.5857 29.2464 42.9064 29.5861C42.7504 29.6687 42.2363 29.7972 41.759 29.8798C41.2816 29.9624 40.8043 30.0542 40.6941 30.0818L40.483 30.1277V24.6198C40.483 20.9755 40.4463 18.9376 40.382 18.6163C40.0791 17.1659 39.0051 15.8073 37.6281 15.1556C37.1875 14.9445 36.6 14.7425 36.2603 14.6874C35.8748 14.6323 30.468 14.5956 20.7283 14.5956H5.78379L5.74707 14.3845C5.4625 13.0626 5.43496 12.2915 5.63691 11.805C5.82051 11.3644 6.36211 10.7952 6.76601 10.6116C7.30762 10.373 37.9402 4.95695 38.5277 5.00285C38.8307 5.02121 39.1887 5.13137 39.4732 5.28742ZM36.4072 17.5974C37.3252 18.0839 37.6648 18.6989 37.7107 19.9382L37.7475 20.8378H20.2418H2.73613L2.77285 19.9382C2.80039 19.2681 2.85547 18.956 3.00234 18.6806C3.28691 18.139 3.77344 17.7167 4.3334 17.5239C4.80156 17.3587 5.47168 17.3587 20.4254 17.3771L36.0308 17.3954L36.4072 17.5974ZM37.7291 25.4277V27.1718H20.2418H2.75449V25.4277V23.6835H20.2418H37.7291V25.4277ZM37.7291 35.0112C37.7291 40.5099 37.7291 40.5007 37.2242 41.1616C37.0957 41.3269 36.7744 41.5839 36.5174 41.7308L36.0308 41.997H20.2418C5.02187 41.997 4.44355 41.9878 4.13144 41.8226C3.68164 41.5839 3.23184 41.1433 3.00234 40.7118C2.80039 40.3538 2.80039 40.2804 2.77285 35.1306L2.74531 29.9257H20.2418H37.7291V35.0112Z" fill="#E54530"/>
<path d="M6.58229 36.5719C6.3987 36.6453 6.17838 36.7555 6.09577 36.8197C5.66432 37.1777 5.54499 38.059 5.8571 38.573C6.25182 39.2064 6.19674 39.1973 10.1624 39.1973C13.5772 39.1973 13.7333 39.1881 14.027 39.0137C14.4309 38.7658 14.7247 38.1141 14.6421 37.6551C14.5594 37.1869 14.2657 36.8197 13.8251 36.6178C13.4762 36.4617 13.1733 36.4434 10.1899 36.4525C7.70221 36.4525 6.8485 36.4801 6.58229 36.5719Z" fill="#E54530"/>
</g>
<defs>
<clipPath id="clip0_99_663">
<rect width="47" height="47" fill="white"/>
</clipPath>
</defs>
</svg>
