<svg width="170" height="50" viewBox="0 0 170 50" fill="none" xmlns="http://www.w3.org/2000/svg">
<path fill-rule="evenodd" clip-rule="evenodd" d="M40.1061 2.61826L40.1195 2.52914C40.2182 1.87296 40.0454 1.26896 39.614 0.765828C39.1832 0.262696 38.614 0.000572656 37.9538 0.000572656H28.4953C27.4042 0.000572656 26.4924 0.788111 26.3295 1.87236L26.3161 1.96209C26.2175 2.61827 26.3908 3.22226 26.8216 3.72539C27.2524 4.22852 27.8216 4.49064 28.4818 4.49064H37.9404C39.0314 4.49006 39.9426 3.70252 40.1061 2.61826Z" fill="#E54530"/>
<path fill-rule="evenodd" clip-rule="evenodd" d="M146.194 24.3016C146.25 23.9316 146.596 23.629 146.964 23.629H150.117C150.486 23.629 150.742 23.931 150.686 24.3016C150.63 24.6716 150.283 24.9742 149.914 24.9742H146.763C146.394 24.9736 146.138 24.6716 146.194 24.3016ZM149.849 40.1285C148.173 40.1285 146.61 41.4943 146.359 43.1784C146.109 44.8625 147.265 46.2283 148.941 46.2283C150.618 46.2283 152.181 44.8631 152.431 43.1784C152.682 41.4937 151.526 40.1285 149.849 40.1285ZM90.7833 40.1285C89.1068 40.1285 87.5441 41.4943 87.2936 43.1784C87.0432 44.8625 88.1991 46.2283 89.8756 46.2283C91.5521 46.2283 93.1148 44.8631 93.3652 43.1784C93.6163 41.4937 92.4599 40.1285 90.7833 40.1285ZM144.758 16.3336L144.762 16.3359L145.171 13.5892L145.356 12.3601C145.469 11.6113 146.168 11.0015 146.912 11.0015H158.435C158.867 11.0015 159.212 11.1844 159.426 11.528L165.288 20.9609C165.445 21.2148 165.429 21.5367 165.245 21.8246C165.062 22.1126 164.763 22.2838 164.443 22.2838H145.216C144.471 22.2838 143.956 21.6733 144.068 20.9251L144.758 16.3336ZM47.7456 40.5924C47.6446 41.2603 48.1046 41.8045 48.769 41.8045H83.8816C83.724 42.2484 83.6073 42.7075 83.5366 43.1784C82.9704 46.9454 85.5512 50 89.3018 50C93.053 50 96.552 46.9454 97.1194 43.1784C97.6862 39.4102 95.1048 36.3556 91.3536 36.3556C89.8773 36.3556 88.4384 36.83 87.2032 37.634C88.5814 36.5755 90.2755 35.9334 92.025 35.9334C95.5111 35.9334 98.0119 38.4843 97.9985 41.8045H142.948C142.791 42.2484 142.674 42.7075 142.604 43.1784C142.037 46.9454 144.618 50 148.369 50C152.12 50 155.619 46.9454 156.186 43.1784C156.753 39.4102 154.171 36.3556 150.421 36.3556C148.766 36.3556 147.16 36.9508 145.833 37.9389C147.274 36.6999 149.119 35.9334 151.029 35.9334C154.516 35.9334 157.017 38.4843 157.003 41.8045H166.31C166.975 41.8045 167.598 41.2603 167.698 40.5924L168.083 38.0433H168.262C168.576 38.0433 168.869 37.7864 168.917 37.4721C168.963 37.1584 168.746 36.9016 168.434 36.9016H165.494L165.665 35.761H167.853C168.168 35.761 168.464 35.5036 168.511 35.1858L169.985 25.3894C170.027 25.1091 169.981 24.8681 169.844 24.6464L159.523 8.0372C159.333 7.73168 159.026 7.56808 158.64 7.56808H146.066L146.652 3.62981C146.804 2.60654 146.366 1.64602 145.495 1.09304L143.773 0L141.637 14.3533H141.637L139.071 31.431H136.498C138.056 20.9568 139.645 10.4784 141.204 0H139.666L135.656 26.941H134.707L138.28 2.93141C138.394 2.17027 138.192 1.47011 137.692 0.886637C137.192 0.303755 136.532 0 135.765 0H103.91C102.818 0 101.906 0.789293 101.744 1.87472L101.73 1.96444C101.633 2.62062 101.806 3.22344 102.237 3.72598C102.668 4.22853 103.237 4.49006 103.897 4.49006H119.483C119.935 4.49006 120.324 4.6695 120.618 5.01372C120.913 5.35794 121.031 5.77076 120.963 6.21936L120.9 6.64332C120.788 7.38395 120.165 7.92168 119.42 7.92168H93.0144C91.9275 7.92168 91.0186 8.70276 90.8505 9.78115L90.8364 9.87029C90.7337 10.5282 90.9053 11.1351 91.3361 11.6412C91.7669 12.1473 92.3373 12.4112 93.0004 12.4112H129.188L126.023 33.6758C107.937 33.6758 75.9811 33.6758 57.8953 33.6758L57.4779 36.4671H78.2157L78.1375 36.9661H78.148L78.0488 37.5325L77.8818 38.5986H48.0398L47.7456 40.5924Z" fill="#E54530"/>
<path fill-rule="evenodd" clip-rule="evenodd" d="M34.1658 7.92167H64.9593C65.6189 7.92167 66.1869 8.18262 66.6177 8.68458C67.0486 9.18595 67.2231 9.78877 67.1262 10.4438L67.1128 10.5329C66.9528 11.6195 66.0398 12.4111 64.9459 12.4111H34.1524C33.4922 12.4111 32.9242 12.1496 32.4934 11.6471C32.0626 11.1445 31.8886 10.5417 31.9867 9.88552L32.0001 9.7958C32.1612 8.71155 33.073 7.92167 34.1658 7.92167Z" fill="#E54530"/>
<path fill-rule="evenodd" clip-rule="evenodd" d="M19.7203 12.4117H2.87147C2.21183 12.4117 1.64385 12.1508 1.21304 11.6488C0.78223 11.1475 0.607683 10.5446 0.704586 9.88964L0.718018 9.80051C0.877966 8.71391 1.79095 7.92227 2.8849 7.92227H19.7343C20.3945 7.92227 20.9625 8.18381 21.3933 8.68635C21.8241 9.1889 21.9981 9.79171 21.9 10.4479L21.8866 10.537C21.7255 11.6219 20.8131 12.4117 19.7203 12.4117Z" fill="#E54530"/>
<path fill-rule="evenodd" clip-rule="evenodd" d="M149.573 41.9868C148.918 41.9868 148.307 42.5205 148.209 43.1784C148.111 43.8363 148.563 44.37 149.218 44.37C149.873 44.37 150.484 43.8369 150.582 43.1784C150.68 42.5205 150.228 41.9868 149.573 41.9868Z" fill="#E54530"/>
<path fill-rule="evenodd" clip-rule="evenodd" d="M90.5066 41.9868C89.8517 41.9868 89.2411 42.5205 89.1436 43.1784C89.0455 43.8363 89.4973 44.37 90.1523 44.37C90.8073 44.37 91.4179 43.8369 91.5159 43.1784C91.6134 42.5205 91.1616 41.9868 90.5066 41.9868Z" fill="#E54530"/>
<path fill-rule="evenodd" clip-rule="evenodd" d="M97.3546 2.61534L97.368 2.5262C97.4661 1.87002 97.2922 1.2672 96.8614 0.764654C96.4305 0.262109 95.8626 0.000572656 95.2023 0.000572656H47.208C46.117 0.000572656 45.2052 0.78811 45.0423 1.87178L45.0289 1.96091C44.9302 2.61709 45.1036 3.22108 45.5344 3.7248C45.9652 4.22793 46.5344 4.49006 47.1946 4.49006H95.1895C96.2811 4.49006 97.1935 3.70076 97.3546 2.61534Z" fill="#E54530"/>
<path fill-rule="evenodd" clip-rule="evenodd" d="M83.0731 7.92167H73.133C72.042 7.92167 71.1302 8.7092 70.9673 9.79346L70.9539 9.88259C70.8552 10.5388 71.028 11.1428 71.4594 11.6459C71.8902 12.149 72.4594 12.4111 73.1196 12.4111H83.0591C84.1461 12.4111 85.055 11.6301 85.2231 10.5517L85.2371 10.4625C85.3398 9.8046 85.1682 9.19768 84.7374 8.69161C84.3066 8.18555 83.7357 7.92167 83.0731 7.92167Z" fill="#E54530"/>
<path d="M15.1948 31.2593V27.6123H7.05312V27.3318L15.0659 20.4479V16.801H1.42482V20.4479H8.96503V20.7284L1.29593 27.6123V31.2593H15.1948Z" fill="black"/>
<path d="M24.1371 31.475C29.2713 31.475 32.1928 28.5402 32.1928 24.0301C32.1928 19.52 29.2713 16.5852 24.1371 16.5852C19.1317 16.5852 16.1672 19.52 16.1672 24.0301C16.1672 28.5402 19.1317 31.475 24.1371 31.475ZM24.1371 27.5907C21.2155 27.5907 20.4636 26.9002 20.4636 24.0301C20.4636 21.16 21.2155 20.4695 24.1371 20.4695C27.0586 20.4695 27.8964 21.16 27.8964 24.0301C27.8964 26.9002 27.0586 27.5907 24.1371 27.5907Z" fill="black"/>
<path d="M37.3084 31.2593V25.8212H44.0108V31.2593H48.0495V16.801H44.0108V22.1743H37.3084V16.801H33.2698V31.2593H37.3084Z" fill="black"/>
<path d="M53.0128 31.2593L54.1299 28.5834H60.9612L62.0568 31.2593H66.6969L60.4671 16.801H54.6884L48.4801 31.2593H53.0128ZM56.4929 22.908L57.4166 20.4695H57.6959L58.6411 22.908L59.4789 24.9365H55.6551L56.4929 22.908Z" fill="black"/>
<path d="M71.1679 31.2593V27.6123H75.0991C78.5147 27.6123 80.6629 25.627 80.6629 22.1959C80.6629 18.7647 78.5147 16.801 75.0991 16.801H67.1292V31.2593H71.1679ZM74.6479 20.4479C76.0658 20.4479 76.6458 20.7284 76.6458 22.1959C76.6458 23.6848 76.0658 23.9654 74.6479 23.9654H71.1679V20.4479H74.6479Z" fill="black"/>
<path d="M89.2756 31.475C94.4098 31.475 97.3313 28.5402 97.3313 24.0301C97.3313 19.52 94.4098 16.5852 89.2756 16.5852C84.2702 16.5852 81.3057 19.52 81.3057 24.0301C81.3057 28.5402 84.2702 31.475 89.2756 31.475ZM89.2756 27.5907C86.354 27.5907 85.6021 26.9002 85.6021 24.0301C85.6021 21.16 86.354 20.4695 89.2756 20.4695C92.1971 20.4695 93.0349 21.16 93.0349 24.0301C93.0349 26.9002 92.1971 27.5907 89.2756 27.5907Z" fill="black"/>
<path d="M102.447 31.2593V26.3391H104.101C105.669 26.3391 106.099 26.6412 106.614 27.7202L108.333 31.2593H112.995L111.212 27.6339C110.675 26.5333 110.202 25.8212 108.72 25.4328V25.217C111.469 24.8717 112.608 23.5122 112.608 21.2248C112.608 18.3979 110.61 16.801 106.808 16.801H98.4083V31.2593H102.447ZM102.447 20.4479H106.765C107.946 20.4479 108.376 20.7284 108.376 21.8722C108.376 23.1022 107.946 23.318 106.765 23.318H102.447V20.4479Z" fill="black"/>
<path d="M122.446 31.2593V20.4479H127.516V16.801H113.317V20.4479H118.408V31.2593H122.446Z" fill="black"/>
<path d="M39.904 37.1233H41.6543L42.815 38.8838L44.4408 37.1233H46.1748L43.3623 39.9608L43.1313 41.5128H41.7555L41.9866 39.9608L39.904 37.1233ZM34.913 39.3016H36.7865C37.1116 39.2952 37.3069 39.2896 37.3698 39.284C37.433 39.2788 37.4888 39.262 37.5379 39.2336C37.6012 39.1973 37.6496 39.1435 37.683 39.0725C37.7169 39 37.7448 38.8916 37.7667 38.7455C37.7879 38.6031 37.7909 38.4955 37.7753 38.4241C37.7586 38.3539 37.7202 38.3023 37.6596 38.2705C37.6161 38.2489 37.5621 38.2365 37.4981 38.232C37.4342 38.2276 37.2493 38.2242 36.9438 38.222H35.0737L34.913 39.3016ZM33.2538 41.5128L33.907 37.1233H37.1235C37.8776 37.1255 38.3274 37.133 38.4751 37.1472C38.6213 37.1614 38.7582 37.2107 38.8843 37.2963C39.0353 37.3972 39.1291 37.5366 39.164 37.713C39.1998 37.8909 39.189 38.1693 39.1324 38.549C39.0848 38.8681 39.0301 39.1039 38.9684 39.2541C38.9066 39.4044 38.8147 39.524 38.6934 39.614C38.5621 39.7104 38.3765 39.7773 38.135 39.8136C38.4103 39.8353 38.5993 39.9156 38.6998 40.055C38.7571 40.1383 38.7868 40.2392 38.7887 40.3588C38.7894 40.4773 38.7623 40.7262 38.7057 41.1059L38.6451 41.5128H37.3348L37.3694 41.2793C37.4055 41.036 37.423 40.8615 37.4196 40.7583C37.4167 40.654 37.3955 40.5748 37.3549 40.5191C37.3132 40.4676 37.2504 40.4358 37.1652 40.4216C37.0811 40.4074 36.901 40.4007 36.6258 40.4007H34.7489L34.5834 41.5128H33.2538ZM28.0578 37.1233H32.8925L32.7389 38.1566H29.2144L29.1202 38.7881H32.4681L32.3252 39.7489H28.9778L28.8721 40.4597H32.4227L32.266 41.5125H27.4049L28.0578 37.1233ZM20.931 37.1233H22.393L23.4964 40.4138H23.7453L25.813 37.1233H27.2654L24.4819 41.5128H22.4369L20.931 37.1233ZM18.745 37.1233H20.1404L19.4872 41.5128H18.0917L18.745 37.1233ZM13.3663 37.1233H14.7618L14.2752 40.3939H17.3804L17.2141 41.5128H12.7134L13.3663 37.1233ZM7.51704 37.1233H12.3518L12.1982 38.1566H8.67365L8.57953 38.7881H11.927L11.7841 39.7489H8.4363L8.33065 40.4597H11.8812L11.7246 41.5125H6.86377L7.51704 37.1233ZM1.47692 40.3939H3.32884C3.67072 40.3939 3.92332 40.3831 4.08738 40.3599C4.25219 40.3379 4.37161 40.2986 4.44564 40.2426C4.52786 40.1813 4.59408 40.0826 4.64356 39.9477C4.69303 39.8128 4.73879 39.6088 4.77934 39.3367C4.81989 39.0647 4.83701 38.8606 4.83254 38.7235C4.82659 38.5863 4.79757 38.4809 4.74512 38.4088C4.68373 38.33 4.58664 38.2784 4.45234 38.2563C4.31804 38.2332 4.04795 38.2223 3.64059 38.2223H1.79983L1.47692 40.3939ZM0 41.5128L0.653267 37.1233H3.80316C4.36119 37.1233 4.72614 37.1277 4.89727 37.1363C5.0684 37.1453 5.24511 37.1681 5.4274 37.2066C5.85076 37.2967 6.0989 37.5455 6.17032 37.9525C6.19637 38.1072 6.20455 38.2728 6.19562 38.4492C6.18558 38.6267 6.1547 38.8935 6.10113 39.2519C6.04272 39.6447 5.98878 39.9406 5.93781 40.1424C5.88796 40.3442 5.82249 40.5274 5.7425 40.6918C5.555 41.0778 5.25218 41.3159 4.83366 41.4059C4.63723 41.4485 4.43113 41.4773 4.21387 41.4915C3.99661 41.5057 3.64282 41.5125 3.15287 41.5125H0V41.5128Z" fill="black"/>
</svg>
